<svg width="12" height="12" viewBox="0 0 12 12" fill="none" xmlns="http://www.w3.org/2000/svg">
<path d="M11.2915 5.29149C11.682 5.68202 11.682 6.31518 11.2915 6.70571L6.76781 11.2294C6.75899 11.2389 6.75082 11.2491 6.74157 11.2584C6.64881 11.3512 6.54174 11.421 6.42806 11.4697C6.06239 11.6283 5.62138 11.5593 5.32252 11.2605C5.2997 11.2376 5.27845 11.2137 5.2583 11.1893L0.77259 6.70364C0.382066 6.31311 0.382066 5.67995 0.77259 5.28942C1.16312 4.89901 1.79632 4.89893 2.1868 5.28942L6.03308 9.1357L9.87728 5.29149C10.2677 4.90106 10.9009 4.90125 11.2915 5.29149Z" fill="#626381"/>
</svg>
