<svg width="172" height="58" viewBox="0 0 172 58" fill="none" xmlns="http://www.w3.org/2000/svg">
<rect width="172" height="58" rx="8" fill="white"/>
<path fill-rule="evenodd" clip-rule="evenodd" d="M148.509 39.3683H149.249C150.86 39.3683 152.341 38.7148 153.429 37.6257C154.518 36.5366 155.171 35.099 155.171 33.4436V14.798C155.171 13.1861 154.518 11.705 153.429 10.6158C152.341 9.52673 150.904 8.87327 149.249 8.87327H148.509V7H149.249C151.383 7 153.342 7.87129 154.736 9.26534C156.129 10.6594 157 12.6198 157 14.7545V33.4871C157 35.6218 156.129 37.5822 154.736 38.9762C153.342 40.3703 151.383 41.2416 149.249 41.2416H148.509V39.3683ZM26.3638 7.04357H146.549V8.91684H26.3638V7.04357ZM120.901 41.2851V48.7346C120.901 49.998 119.899 51 118.637 51H54.3199C53.0571 51 52.0556 49.998 52.0556 48.7346V41.2416H26.4074V39.3683H146.593V41.2416H120.901V41.2851ZM23.7511 7.04357H24.4913V8.91684H23.7511C22.1399 8.91684 20.6594 9.5703 19.6143 10.6594C18.5256 11.7485 17.8724 13.1861 17.8724 14.8416V33.4871C17.8724 35.099 18.5256 36.5802 19.6143 37.6693C20.7029 38.7584 22.1399 39.4119 23.7511 39.4119H24.4913V41.2851H23.7511C21.6174 41.2851 19.6578 40.4139 18.2644 39.0198C16.8709 37.6257 16 35.6653 16 33.5307V14.8851C16 12.7505 16.8709 10.7901 18.2644 9.39604C19.6578 7.91485 21.6174 7.04357 23.7511 7.04357Z" fill="#A62682"/>
<path d="M112.671 46.0772H111.974V47.7762H111.016V43.5505H111.974V45.2495H112.671L113.803 43.5505H114.848L113.455 45.598L114.892 47.7762H113.759L112.671 46.0772ZM108.403 45.8158C108.708 45.8158 108.926 45.7723 109.057 45.6416C109.231 45.5109 109.274 45.3366 109.274 45.1188C109.274 44.901 109.187 44.6832 109.057 44.5525C108.882 44.4218 108.665 44.3782 108.403 44.3782H107.62V45.8594H108.403V45.8158ZM108.447 43.5505C108.839 43.5505 109.144 43.5941 109.405 43.7247C109.666 43.8554 109.884 44.0297 110.058 44.2475C110.189 44.4653 110.276 44.7703 110.276 45.0752C110.276 45.3802 110.189 45.6416 110.058 45.903C109.927 46.1208 109.71 46.295 109.405 46.4257C109.144 46.5564 108.795 46.6 108.447 46.6H107.576V47.7762H106.618V43.5505H108.447ZM104.354 46.1208L103.7 44.5089L103.047 46.1208H104.354ZM104.658 46.8614H102.699L102.307 47.7762H101.305L103.178 43.5505H104.136L106.008 47.7762H104.963L104.658 46.8614ZM100.739 43.5505V47.7762H99.7813V44.3346H97.8653V47.7762H96.9074V43.5505H100.739ZM90.2449 43.5505H91.2029V46.295L93.206 43.5505H94.1204V47.7762H93.1624V45.0317L91.1594 47.7762H90.2449V43.5505ZM89.5917 44.3346H88.2418V47.7762H87.2838V44.3346H85.9339V43.5505H89.5917V44.3346ZM81.4052 43.5505H82.3632V46.295L84.3663 43.5505H85.2807V47.7762H84.3227V45.0317L82.3196 47.7762H81.4052V43.5505ZM78.9666 47.0792C79.4456 47.0792 79.6634 46.9049 79.6634 46.5564C79.6634 46.2079 79.4456 46.0337 78.9666 46.0337H77.878V47.1228H78.9666V47.0792ZM77.878 45.2931H78.7925C79.0102 45.2931 79.1844 45.2495 79.2715 45.1624C79.3586 45.0752 79.4456 44.9445 79.4456 44.7703C79.4456 44.596 79.4021 44.4653 79.2715 44.3782C79.1408 44.2911 79.0102 44.2475 78.7925 44.2475H77.878V45.2931ZM79.8375 45.598C80.0988 45.6851 80.273 45.8158 80.4472 45.9901C80.5778 46.1643 80.6649 46.3822 80.6649 46.6436C80.6649 47.0356 80.5343 47.297 80.2295 47.5148C79.9246 47.7327 79.5327 47.8198 79.0102 47.8198H76.92V43.5941H78.8795C79.3585 43.5941 79.7505 43.6812 80.0117 43.899C80.273 44.0733 80.4036 44.3782 80.4036 44.7267C80.4036 44.9445 80.3601 45.1188 80.2295 45.2931C80.1859 45.3802 80.0117 45.4673 79.8375 45.598ZM71.9558 43.5505H72.9138V46.295L74.9169 43.5505H75.8314V47.7762H74.8734V45.0317L72.8703 47.7762H71.9558V43.5505ZM71.3462 44.3346H69.9963V47.7762H69.0383V44.3346H67.6448V43.5505H71.3026V44.3346H71.3462ZM65.2934 46.0772H64.5967V47.7762H63.6387V43.5505H64.5967V45.2495H65.2934L66.4256 43.5505H67.4707L66.0772 45.598L67.5142 47.7762H66.382L65.2934 46.0772ZM61.3743 46.1208L60.7211 44.5089L60.0679 46.1208H61.3743ZM61.6791 46.8614H59.7196L59.3277 47.7762H58.3261L60.1986 43.5505H61.1566L63.029 47.7762H61.9839L61.6791 46.8614Z" fill="#FFED00"/>
<path fill-rule="evenodd" clip-rule="evenodd" d="M141.498 24.8178L148.509 31.8317L149.118 32.4416M133.877 17.1505V32.398H130.045L129.436 31.7881V16.5406H133.268L133.877 17.1505ZM149.118 17.1505L141.498 24.7743L149.118 32.398H143.414L135.793 24.7743L135.184 24.1644L142.804 16.5406H148.509L149.118 17.1505ZM122.425 17.1505V20.9842H112.889V26.7347H109.057L108.447 26.1248V16.5842H121.815L122.425 17.1505ZM128.129 17.1505V32.398H109.057L108.447 31.7881V27.9545H123.688V16.497H127.52L128.129 17.1505ZM91.2464 24.1644L88.0676 20.9842L87.458 20.3743V16.5406H89.374L93.206 20.3743L93.8156 20.9842V28.6079L89.9836 32.4416H88.0676L87.458 31.8317V27.998L91.2464 24.1644ZM107.141 17.1505V20.9842L103.352 24.7743L106.531 27.9545L107.141 28.5644V32.398H105.225L101.393 28.5644L100.783 27.9545V20.3307L104.615 16.497H106.531L107.141 17.1505ZM99.5201 17.1505V32.398H95.6881L95.0784 31.7881V16.5406H98.9104L99.5201 17.1505ZM70.9107 17.1505V32.398H67.0787L66.4691 31.7881V16.5406H70.3011L70.9107 17.1505ZM86.1516 17.1505V32.398H82.3196L81.71 31.7881V23.5109L72.7832 32.4416L72.1736 31.8317V26.0812L81.71 16.5406H85.542L86.1516 17.1505ZM45.4802 16.5406H62.6371L63.2467 17.1505L65.1628 19.0673V30.5248L63.2467 32.4416H51.7943L51.1847 31.8317V27.998H60.7211V26.7347H51.7943L51.1847 26.1248V22.2911H60.7211V21.0277H49.9219V32.4851H46.0899L45.4802 31.8752C45.4802 26.6911 45.4802 21.6376 45.4802 16.5406ZM25.101 36.2317L24.4913 35.6218V27.998H26.4073L37.8598 16.5406H41.6918L42.3014 17.1505V19.0673L33.3746 27.998H37.8598V26.0812L41.6918 22.2475L42.3014 22.8574V27.9545H43.5642L44.1739 28.5644V36.1881H40.3419L39.7322 35.5782V32.398H28.933V36.2317H25.101Z" fill="#A62682"/>
<path d="M87.458 31.7881V27.9545L91.29 24.1208L87.458 20.2871V16.4535H89.374L93.206 20.2871V27.9109L89.374 31.7445H87.458V31.7881ZM104.615 16.5406H106.531V20.3743L102.699 24.2079L106.531 28.0416V31.8752H104.615L100.783 28.0416V20.4178L104.615 16.5406ZM98.8669 16.5406V31.7881H95.0784V16.5406H98.8669ZM66.4691 31.7881V16.5406H70.3011V31.7881H66.4691ZM81.71 16.5406H85.542V31.7881H81.71V22.2475L72.1736 31.7881V26.0812L81.71 16.5406ZM45.4802 16.5406H62.6371L64.5531 18.4574V29.9148L62.6371 31.8317H51.1847V27.998H60.7211V26.0812H51.1847V22.2475H60.7211V20.3307H49.2687V31.7881H45.4367C45.4802 26.6911 45.4802 21.6376 45.4802 16.5406ZM24.4913 35.6218V27.998H26.4073L37.8598 16.5406H41.6918V18.4574L32.1553 27.998H37.8598V26.0812L41.6918 22.2475V27.9545H43.6078V35.5782H39.7758V31.7445H28.3233V35.5782H24.4913V35.6218Z" fill="#32B6C1"/>
<path d="M129.436 16.5406H133.268V31.7881H129.436V16.5406ZM142.761 16.5406H148.465L140.845 24.1644L148.465 31.7881H142.761L135.14 24.1644L142.761 16.5406ZM108.447 16.5406H121.815V20.3743H112.279V26.0812H108.447V16.5406ZM123.688 27.998V16.5406H127.52V31.7881H108.447V27.9545H123.688V27.998Z" fill="#FFED00"/>
</svg>
