<svg width="17" height="18" viewBox="0 0 17 18" fill="none" xmlns="http://www.w3.org/2000/svg">
<path d="M8.50342 0.637207C9.05569 0.637207 9.5034 1.08494 9.50342 1.63721V7.99658H15.8628L15.9644 8.00146C16.4687 8.05258 16.8628 8.47875 16.8628 8.99658C16.8626 9.51425 16.4686 9.94064 15.9644 9.9917L15.8628 9.99658H9.50342V16.3628L9.49854 16.4644C9.44747 16.9688 9.02129 17.3628 8.50342 17.3628C7.98555 17.3628 7.55937 16.9688 7.5083 16.4644L7.50342 16.3628V9.99658H1.13721C0.585065 9.99658 0.137438 9.54867 0.137207 8.99658C0.137207 8.4443 0.584922 7.99658 1.13721 7.99658H7.50342V1.63721C7.50344 1.08494 7.95115 0.637214 8.50342 0.637207Z" fill="#A62682"/>
</svg>
