<svg width="13" height="13" viewBox="0 0 13 13" fill="none" xmlns="http://www.w3.org/2000/svg">
<path d="M12.5236 0.594332C12.9141 0.984849 12.9141 1.61802 12.5236 2.00855L8.0268 6.5053L12.5236 11.0021L12.5919 11.0773C12.9124 11.4701 12.8897 12.0501 12.5236 12.4163C12.1574 12.7822 11.5773 12.8051 11.1846 12.4846L11.1093 12.4163L6.61259 7.91952L2.111 12.4211L2.03573 12.4895C1.64295 12.81 1.06298 12.7873 0.696787 12.4211C0.330604 12.0549 0.307869 11.4749 0.628424 11.0822L0.696787 11.0069L5.19838 6.5053L0.696787 2.00371C0.306363 1.61329 0.306564 0.980047 0.696787 0.589498C1.08731 0.198974 1.72048 0.198974 2.111 0.589498L6.61259 5.09109L11.1093 0.594332C11.4999 0.203834 12.133 0.203824 12.5236 0.594332Z" fill="#626381"/>
</svg>
