<svg width="19" height="19" viewBox="0 0 19 19" fill="none" xmlns="http://www.w3.org/2000/svg">
<g clip-path="url(#clip0_5_1267)">
<path d="M4.44009 3.85251L12.0145 1.78502L11.6134 0.974244C11.3509 0.447237 10.7108 0.229606 10.1838 0.492043L3.40314 3.85251H4.44009ZM14.3658 1.84477C14.2719 1.84477 14.178 1.85757 14.0841 1.88317L12.3047 2.36964L6.8703 3.85251H15.727L15.3942 2.63208C15.2661 2.15628 14.8351 1.84477 14.3658 1.84477ZM16.8386 4.59929H1.06895C0.731836 4.59929 0.430994 4.75504 0.2347 5.00041C0.145087 5.11349 0.0768108 5.24364 0.0384054 5.3866C0.0149354 5.47621 0 5.57009 0 5.6661V17.5526C0 18.1415 0.477934 18.6194 1.06682 18.6194H16.8365C17.4254 18.6194 17.9033 18.1415 17.9033 17.5526V14.5762H11.5728C10.5722 14.5762 9.75924 13.7632 9.75924 12.7626V10.39C9.75924 9.89923 9.95551 9.45332 10.2734 9.12688C10.5551 8.83668 10.9327 8.64039 11.3552 8.59131C11.4256 8.5828 11.4981 8.57851 11.5707 8.57851H17.9033V5.6661C17.9054 5.07722 17.4275 4.59929 16.8386 4.59929Z" fill="#32B6C1"/>
<path d="M18.6522 9.59839C18.5455 9.50025 18.4197 9.42557 18.2788 9.3765C18.17 9.34025 18.0548 9.31891 17.9332 9.31891H11.5728C10.9839 9.31891 10.506 9.79682 10.506 10.3857V12.7604C10.506 13.3493 10.9839 13.8273 11.5728 13.8273H17.9332C18.0548 13.8273 18.17 13.8059 18.2788 13.7696C18.4197 13.7227 18.5455 13.6459 18.6522 13.5477C18.8656 13.3536 19 13.0719 19 12.7605V10.3857C19 10.0742 18.8656 9.79253 18.6522 9.59839ZM13.8003 11.7854C13.8003 12.0798 13.5614 12.3188 13.2669 12.3188H12.9127C12.6183 12.3188 12.3793 12.0798 12.3793 11.7854V11.4312C12.3793 11.2605 12.4583 11.109 12.5842 11.013C12.6759 10.9426 12.789 10.8978 12.9127 10.8978H13.2669C13.5614 10.8978 13.8003 11.1367 13.8003 11.4312V11.7854Z" fill="#32B6C1"/>
</g>
<defs>
<clipPath id="clip0_5_1267">
<rect width="19" height="19" fill="white"/>
</clipPath>
</defs>
</svg>
